Patient4_TMGait_0pt6_02_right_02_EMG.mot
version=1
nRows=30
nColumns=33
inDegrees=no
endheader
time	1LAddLong	2LGlutMax	3LGlutMed	4LIliopsoas	5LSemiMemb	6LBicFemLong	7LRecFem	8LVastMed	9LVastLat	10LGasMed	11LTibAnt	12lTibPost	13LPeroneusLong	14LSol	15LExtDigLong	16LFlexDigLong	17RAddLong	18RGlutMax	19RGlutMed	20RIliopsoas	21RSemiMemb	22RBicFemLong	23RRecFem	24RVastMed	25RVastLat	26RGasMed	27RTibAnt	28RTibPost	29RPeroneusLong	30RSol	31RExtDigLong	32RFlexDigLong
2.175	-0.009003	-1.3966	0.062866	0.015564	-0.011444	0.024567	0.22461	-0.004578	0.01236	0.029907	0.031891	-0.010681	-0.079346	0.033112	-0.3038	0.027313	-0.061188	-0.22263	-0.50079	0.11292	0.083466	0.048676	-0.27695	0.12299	-0.017242	-0.039978	0.072021	-0.010529	-0.027313	0.8905	-0.014496	-0.023346
2.176	-0.009918	-1.3965	0.08255	0.015717	-0.009003	0.048218	0.22293	-0.009308	0.011902	0.014038	-0.025787	-0.012054	-0.015259	0.021515	-0.20599	0.018158	-0.058289	-0.19012	-0.51102	0.016785	-0.082855	0.21973	-0.15717	0.19547	0.07782	-0.06134	0.04837	-0.002289	0.062103	0.18585	-0.016479	-0.019226
2.177	0.00061	-1.4293	0.014496	0.00351	-0.011749	0.059052	0.20157	0.00412	-0.000916	0.046997	-0.12009	-0.006866	-0.005035	-0.062561	-0.18738	0.00351	-0.048828	-0.19684	-0.52704	-0.053406	-0.17944	0.16083	-0.030518	0.24262	0.06958	-0.060883	0.054169	-0.018616	-0.024872	-0.45075	-0.009766	-0.028992
2.178	-0.000305	-1.4561	-0.025635	0.028534	-0.008698	0.064392	0.21088	0.013123	0.000305	0.060577	-0.008392	-0.029449	-0.057068	-0.14816	0.43808	-0.000763	-0.022888	-0.41931	-0.672	-0.089722	-0.1886	-0.01358	0.028076	0.13214	0.029449	-0.028687	0.065002	-0.037079	-0.13046	-0.49423	-0.012054	-0.015564
2.179	-0.000763	-1.469	-0.022583	0.023956	-0.005493	0.039978	0.14542	0.013885	0.02243	0.060272	0.037842	-0.015106	-0.098877	-0.14313	-0.12802	-0.005646	0.01297	-0.56671	-0.71884	-0.13306	-0.21072	-0.36179	0.023804	0.074463	0.008545	0.076904	0.082245	-0.16174	-0.19119	-0.2771	-0.01297	-0.018921
2.18	0.001373	-1.4066	-0.005798	-0.009003	-0.014343	0.044556	0.05249	0.007629	0.030365	0.028534	-0.17746	-0.010223	-0.07782	-0.047455	0.2626	-0.002289	0.010681	-0.58823	-0.88379	-0.21408	-0.2536	-0.69168	0.12909	0.097809	0.013275	0.14999	0.041656	-0.031281	-0.12451	-0.2327	-0.010376	-0.019531
2.181	0.007172	-1.3142	0.009308	-0.022278	-0.004272	0.048676	-0.003967	0.013123	0.061646	0.029449	-0.27344	-0.005493	-0.10178	0.039368	-0.061188	-0.010986	-0.045319	-0.57358	-1.2308	-0.25207	-0.023193	-0.50995	0.1088	0.12054	0.002899	0.054626	0.002899	0.12924	0.01236	-0.028839	-0.012054	-0.020447
2.182	-0.001373	-1.1823	0.01358	-0.014954	-0.006409	0.035553	0.025787	0.028229	0.06485	0.043945	-0.060883	-0.00061	-0.13001	0.075836	0.012207	-0.019073	-0.039368	-0.69672	-1.3258	-0.13321	0.14954	-0.37018	0.074768	0.074005	-0.018921	0.034332	0.007935	0.04364	0.37659	0.032806	-0.009766	-0.010681
2.183	0.005188	-1.0324	0.025482	-0.005798	-0.003204	0.024872	0.057831	0.026855	0.067139	0.097351	0.095062	0.002747	-0.15381	0.042419	-0.016937	-0.010681	-0.037994	-0.95322	-1.4526	0.18875	0.19852	-0.32547	0.042725	-0.02655	-0.052032	0.043945	0.03891	-0.000305	0.14954	0.20401	-0.009766	-0.00946
2.184	-0.002747	-0.9108	0.022736	0.005951	0.00824	0.027771	0.14084	0.028839	0.076141	0.08194	0.20767	0.006866	-0.16037	0.032043	-0.038757	-0.014343	-0.041199	-1.2457	-1.2878	0.29144	0.1239	-0.24979	0.000153	-0.008545	-0.032196	0.020447	0.042114	-0.023346	-0.25055	0.33814	-0.012207	-0.011292
2.185	0.002289	-0.78903	0.014038	-0.00473	-0.012054	-0.001068	0.21729	0.021057	0.077515	0.043335	0.30182	-0.001221	-0.1297	0.037384	0.059052	-0.008698	-0.006409	-1.3994	-1.2848	0.19531	0.00473	-0.17975	0.14938	-0.03479	-0.065308	-0.048065	0.053406	-0.039063	-0.83374	0.30945	-0.012512	-0.009308
2.186	0.007935	-0.68878	-0.009155	-0.013428	-0.012665	0.019836	0.26382	0.019531	0.082397	0.017548	0.41184	0.014343	-0.063629	0.011292	0.13199	-0.002136	-0.018311	-1.6296	-1.2096	0.10132	-0.022736	-0.095978	0.14328	0.081024	-0.017395	-0.16052	0.036316	-0.039825	-0.49759	0.21545	-0.012512	-0.0177
2.187	-0.007324	-0.56534	0.014648	0.001831	-0.004578	-0.008545	0.23529	0.015259	0.10483	0.030212	0.42068	-0.007629	-0.13229	-0.025482	-0.21042	0.002899	-0.006104	-1.8213	-0.76141	-0.084839	0.031433	-0.27863	0.091248	0.23361	0.048981	-0.20172	0.055695	-0.029755	-0.10544	0.074921	-0.012054	-0.024109
2.188	-0.003052	-0.4155	0.028381	0.010223	-0.005188	-0.024872	0.24689	0.005798	0.1088	0.050812	0.17578	0.01297	-0.1944	-0.047302	0.10834	0.005493	0.021973	-1.9518	-0.63049	-0.14801	-0.005951	-0.43274	0.13275	0.20172	0.5159	-0.12878	0.092163	0.098877	-0.11932	-0.22995	-0.009766	-0.0177
2.189	-0.008698	-0.30548	0.011292	0.014038	-0.005341	-0.006714	0.39047	0.006714	0.095978	0.076599	0.12039	0.004578	-0.20508	-0.057373	0.068817	0.013428	0.007782	-2.0265	-0.65384	-0.24765	-0.024872	-0.52536	0.20203	0.11124	0.7695	-0.015564	0.068817	-0.027313	0.12894	-0.36743	-0.010834	-0.020447
2.19	-0.007019	-0.1593	-0.026703	0.026398	-0.002289	-0.015869	0.58731	0.010071	0.096436	0.076294	-0.068512	0.002594	-0.1355	-0.012817	0.79895	0.009003	-0.059509	-2.13	-1.2601	-0.14832	0.016479	-0.5011	0.03479	0.019073	0.62973	0.002594	0.059052	0.010376	0.14175	-0.044708	-0.011749	-0.019531
2.191	-0.008087	-0.018921	-0.050964	0.006561	0	-0.018158	0.60333	0.018463	0.095367	0.024567	-0.037079	0.002899	-0.046234	0.10513	0.005951	0.00473	-0.039215	-2.3186	-1.0071	0.074615	0.14297	-0.28732	0.13412	-0.032349	0.34851	0.092316	0.059052	-0.000458	-0.15747	0.1033	-0.010986	-0.01358
2.192	-0.010681	0.1326	-0.081024	-0.01297	0.001831	-0.035858	0.5693	0.016632	0.060425	0.007477	-0.076599	0.003052	-0.048828	0.16007	-0.1532	0.000305	0.003815	-2.368	-1.0313	0.22522	0.020752	-0.20462	0.12299	0.031586	0.043945	0.11322	0.12741	-0.022278	-0.7309	0.29419	-0.007477	-0.020447
2.193	-0.005951	0.32013	-0.16205	-0.025482	-0.000305	-0.016785	0.55283	0.024719	0.051575	0.029602	-0.38849	0.006409	-0.007324	0.06073	-0.24429	0.002441	0.001831	-2.4152	-0.74905	0.26642	-0.009766	-0.15839	-0.050964	0.16922	-0.12268	-0.003052	0.11383	-0.033417	-0.21301	0.35217	-0.010071	-0.021057
2.194	-0.001526	0.51315	-0.2092	-0.021362	0.001221	-0.001984	0.5304	0.024261	0.026398	0.058289	-0.2594	0.002899	-0.035553	-0.090027	-0.50766	0.00412	-0.014496	-2.5188	-0.69275	0.071106	0.061493	-0.087585	-0.24704	0.17593	-0.42893	-0.064087	0.033875	-0.14923	1.0327	0.42435	-0.005951	-0.01358
2.195	0.001526	0.62729	-0.17197	-0.018768	0.00061	-0.017242	0.52765	0.015106	0.027771	0.062408	-0.078735	0.008087	-0.083771	-0.076599	-0.4422	0.001678	0.002899	-2.5188	-0.39429	-0.029907	0.05722	-0.063782	0.058594	0.27969	-0.96542	-0.12756	0.037842	-0.19409	0.85693	0.15747	-0.005798	-0.012817
2.196	0.017395	0.79514	-0.15549	0.003967	0.000305	-0.030823	0.45029	0.021667	0.016327	0.064392	0.026245	0.01236	-0.1384	0.061188	-0.31174	-0.002136	0.023499	-2.4489	-0.48752	0.070343	0.046387	-0.004272	0.35843	0.22675	-0.9166	-0.15305	0.028687	0.043793	0.023346	-0.016022	-0.01297	-0.015869
2.197	0.003204	0.99258	-0.18036	0.006714	0.007935	-0.027313	0.31952	0.019531	0.028992	0.052643	-0.059967	0.000763	-0.1033	0.097961	-0.29053	0.000763	0.01358	-2.1272	-0.89096	0.049286	-0.073853	0.18738	0.12497	-0.01358	-0.52399	-0.13184	-0.012817	-0.18082	-0.088959	-0.050964	-0.009003	-0.011597
2.198	0.001526	1.1296	-0.17777	0.000763	0.001373	-0.020294	0.39414	0.019531	0.013123	0.052643	-0.11322	0.00351	-0.031128	0.048218	-0.056458	0.012817	0.015869	-1.9078	-0.81787	0.039063	0.12146	0.083313	-0.06012	-0.21927	-0.23102	-0.019989	-0.010071	-0.1268	0.036469	-0.41382	-0.007935	-0.009003
2.199	-0.000916	1.2126	-0.16937	-0.022583	0.000305	-0.045166	0.42145	0.020905	0.023041	0.058594	-0.11566	0.00946	0.004425	0.083923	0.084076	0.005951	0.034027	-1.8059	-0.71549	0.14786	0.23178	-0.12573	0.025787	-0.23911	-0.1712	0.021667	0.059052	0.13779	0.014343	-0.40863	-0.014191	-0.010986
2.2	-0.009613	1.2534	-0.15991	-0.013123	0.001984	-0.037842	0.42267	0.020294	0.029602	0.067596	-0.091858	0.007019	-0.027008	0.039215	0.22675	0.006104	0.043335	-1.7647	-0.69977	0.22034	0.042267	-0.006561	0.063782	-0.27969	-0.098877	0.033569	0.17624	0.16647	0.051575	-0.026093	-0.008392	-0.01358
2.201	-0.004578	1.391	-0.1915	0.00885	-0.002899	-0.025635	0.51682	0.02594	0.023041	0.070953	-0.064697	0	-0.011749	-0.095825	0.28671	0.003357	-0.002441	-1.5349	0.024719	0.037842	-0.23407	-0.038757	-0.097351	-0.13534	-0.007019	0.023041	0.289	0.29221	-0.096283	0.026093	-0.007019	-0.017853
2.202	-0.006714	1.4531	-0.20248	0.012054	0.006409	-0.038147	0.52811	0.026855	0.014038	0.074921	0.05661	0.001221	-0.025482	-0.063171	0.29739	0.005188	-0.040741	-1.2671	-0.45334	0.006866	-0.3685	-0.1593	-0.14465	0.12024	-0.071259	0.084381	0.33966	0.17517	-0.098419	-0.4277	-0.006714	-0.023041
2.203	-0.006256	1.494	-0.24094	0.025787	-0.006409	-0.020142	0.50842	0.005035	0.002747	0.042114	0.046082	-0.004578	-0.033722	-0.003204	0.16663	0.00351	-0.00824	-1.0822	-1.2305	0.029907	-0.19821	-0.1329	-0.074005	0.15045	-0.08316	0.084229	0.28153	0.068817	-0.052338	-0.54688	-0.00946	-0.017548
2.204	0.000153	1.5582	-0.23163	0.062103	-0.003815	-0.027008	0.45837	0.022888	0.007629	0.015411	-0.047302	-0.00412	0.028381	-0.071259	0.85831	0.007935	0.032806	-0.92728	-1.2082	-0.007782	-0.018921	-0.20966	-0.084229	0.060577	-0.062714	0.066681	0.11948	0.041046	-0.011749	0.062103	-0.002899	-0.001068
